<?xml version="1.0" standalone="no"?><!DOCTYPE svg PUBLIC "-//W3C//DTD SVG 1.1//EN" "http://www.w3.org/Graphics/SVG/1.1/DTD/svg11.dtd"><svg t="1609677570618" class="icon" viewBox="0 0 1024 1024" version="1.1" xmlns="http://www.w3.org/2000/svg" p-id="15947" xmlns:xlink="http://www.w3.org/1999/xlink" width="32" height="32"><defs><style type="text/css"></style></defs><path d="M866.133333 96H704V57.6c0-17.066667-14.933333-32-32-32S640 40.533333 640 57.6v36.266667H384V57.6c0-17.066667-14.933333-32-32-32S320 40.533333 320 57.6v36.266667H157.866667c-19.2 2.133333-32 14.933333-32 34.133333v800c0 17.066667 14.933333 32 32 32h710.4c17.066667 0 32-14.933333 32-32V128c-2.133333-19.2-14.933333-32-34.133334-32z m-32 797.866667H189.866667V160H320v12.8c0 17.066667 14.933333 32 32 32S384 189.866667 384 172.8v-12.8h256v12.8c0 17.066667 14.933333 32 32 32S704 189.866667 704 172.8v-12.8h130.133333v733.866667z" p-id="15948" fill="#BFCBD9"></path><path d="M283.733333 302.933333c-17.066667 0-32 14.933333-32 32s14.933333 32 32 32h456.533334c17.066667 0 32-14.933333 32-32s-14.933333-32-32-32H283.733333zM740.266667 467.2H283.733333c-17.066667 0-32 14.933333-32 32s14.933333 32 32 32h456.533334c17.066667 0 32-14.933333 32-32s-14.933333-32-32-32zM740.266667 631.466667H283.733333c-17.066667 0-32 14.933333-32 32s14.933333 32 32 32h456.533334c17.066667 0 32-14.933333 32-32s-14.933333-32-32-32z" p-id="15949" fill="#BFCBD9"></path></svg>