<?xml version="1.0" standalone="no"?><!DOCTYPE svg PUBLIC "-//W3C//DTD SVG 1.1//EN" "http://www.w3.org/Graphics/SVG/1.1/DTD/svg11.dtd"><svg t="1609677755836" class="icon" viewBox="0 0 1024 1024" version="1.1" xmlns="http://www.w3.org/2000/svg" p-id="17574" xmlns:xlink="http://www.w3.org/1999/xlink" width="32" height="32"><defs><style type="text/css"></style></defs><path d="M512 42.666667c259.2 0 469.333333 210.133333 469.333333 469.333333s-210.133333 469.333333-469.333333 469.333333S42.666667 771.2 42.666667 512 252.8 42.666667 512 42.666667z m0 85.333333C299.925333 128 128 299.925333 128 512s171.925333 384 384 384 384-171.925333 384-384S724.074667 128 512 128z m206.933333 254.997333l30.186667 30.186667a21.333333 21.333333 0 0 1 0 30.165333L477.589333 714.88a21.333333 21.333333 0 0 1-30.165333 0l-30.165333-30.186667-126.016-125.994666a21.333333 21.333333 0 0 1 0-30.165334l30.165333-30.186666a21.333333 21.333333 0 0 1 30.165333 0l110.933334 110.933333 226.282666-226.282667a21.333333 21.333333 0 0 1 30.165334 0z" p-id="17575" fill="#BFCBD9"></path></svg>