<?xml version="1.0" standalone="no"?><!DOCTYPE svg PUBLIC "-//W3C//DTD SVG 1.1//EN" "http://www.w3.org/Graphics/SVG/1.1/DTD/svg11.dtd"><svg t="1609677741975" class="icon" viewBox="0 0 1024 1024" version="1.1" xmlns="http://www.w3.org/2000/svg" p-id="16766" xmlns:xlink="http://www.w3.org/1999/xlink" width="32" height="32"><defs><style type="text/css"></style></defs><path d="M186.88 1023.914667A187.136 187.136 0 0 1 0.085333 837.12V186.538667A186.88 186.88 0 0 1 186.88 0h650.581333a186.88 186.88 0 0 1 186.794667 186.538667v88.064a51.2 51.2 0 0 1-51.2 51.2 51.2 51.2 0 0 1-51.2-51.2V186.538667a84.565333 84.565333 0 0 0-84.309333-84.053334H186.965333a84.394667 84.394667 0 0 0-84.309333 84.053334v650.837333a84.394667 84.394667 0 0 0 84.309333 84.053333h650.581334a84.394667 84.394667 0 0 0 84.309333-84.053333V749.312a51.2 51.2 0 0 1 51.2-51.2 51.2 51.2 0 0 1 51.2 51.2v88.064a186.88 186.88 0 0 1-186.794667 186.538667z m174.506667-512l236.629333-189.184v141.994666h378.709333a47.36 47.36 0 0 1 47.274667 47.189334 47.445333 47.445333 0 0 1-47.274667 47.530666H597.504V701.44z" p-id="16767" fill="#BFCBD9"></path></svg>