<?xml version="1.0" standalone="no"?><!DOCTYPE svg PUBLIC "-//W3C//DTD SVG 1.1//EN" "http://www.w3.org/Graphics/SVG/1.1/DTD/svg11.dtd"><svg t="1609678192877" class="icon" viewBox="0 0 1131 1024" version="1.1" xmlns="http://www.w3.org/2000/svg" p-id="12082" xmlns:xlink="http://www.w3.org/1999/xlink" width="35.34375" height="32"><defs><style type="text/css"></style></defs><path d="M1012.475544 474.810313L572.304872 27.218158a88.801874 88.801874 0 0 0-127.956591 0L11.343178 468.15657a39.666543 39.666543 0 0 0 0 55.53316 38.386977 38.386977 0 0 0 54.509508 0L453.561155 128.303865A88.290048 88.290048 0 0 1 563.091997 128.303865l394.874039 401.783695a38.386977 38.386977 0 0 0 27.38271 11.516093 37.875151 37.875151 0 0 0 27.126798-11.516093 39.41063 39.41063 0 0 0 0-55.277247z" p-id="12083" fill="#BFCBD9"></path><path d="M499.369615 191.514421L128.039589 570.265929V921.634727a51.182636 51.182636 0 0 0 51.182636 51.182637h204.730545v-216.758465a100.317967 100.317967 0 0 1 99.294314-102.365273h55.277248a100.317967 100.317967 0 0 1 99.294314 102.365273V972.817364H844.596497a51.182636 51.182636 0 0 0 51.182636-51.182637V576.663759l-378.495595-383.869772a13.307485 13.307485 0 0 0-17.913923-1.279566z" p-id="12084" fill="#BFCBD9"></path></svg>