<?xml version="1.0" standalone="no"?><!DOCTYPE svg PUBLIC "-//W3C//DTD SVG 1.1//EN" "http://www.w3.org/Graphics/SVG/1.1/DTD/svg11.dtd"><svg t="1609678122116" class="icon" viewBox="0 0 1028 1024" version="1.1" xmlns="http://www.w3.org/2000/svg" p-id="11440" xmlns:xlink="http://www.w3.org/1999/xlink" width="32.125" height="32"><defs><style type="text/css"></style></defs><path d="M0 0l254.336 0 0 254.272-254.336 0L0 0 0 0zM377.152 0l650.176 0 0 254.272L377.152 254.272 377.152 0 377.152 0zM377.152 378.88l650.176 0 0 264.448L377.152 643.328 377.152 378.88 377.152 378.88zM0 378.88l254.336 0 0 264.448-254.336 0L0 378.88 0 378.88zM0 766.272l254.336 0L254.336 1024l-254.336 0L0 766.272 0 766.272zM377.152 766.272l650.176 0L1027.328 1024 377.152 1024 377.152 766.272 377.152 766.272z" p-id="11441" fill="#BFCBD9"></path></svg>