<?xml version="1.0" standalone="no"?><!DOCTYPE svg PUBLIC "-//W3C//DTD SVG 1.1//EN" "http://www.w3.org/Graphics/SVG/1.1/DTD/svg11.dtd"><svg t="1609677990990" class="icon" viewBox="0 0 1024 1024" version="1.1" xmlns="http://www.w3.org/2000/svg" p-id="8165" xmlns:xlink="http://www.w3.org/1999/xlink" width="32" height="32"><defs><style type="text/css"></style></defs><path d="M670.011077 60.179692C670.011077 20.086154 638.424615 0 599.748923 0H389.12c-38.596923 0-69.710769 20.086154-69.710769 60.179692H109.095385C70.498462 60.179692 39.384615 92.16 39.384615 132.253538s30.956308 71.68 69.553231 71.68h770.756923c38.596923 0 70.183385-32.846769 70.183385-72.861538-3.150769-44.740923-26.545231-68.371692-70.183385-70.892308H670.011077z" fill="#BFCBD9" p-id="8166"></path><path d="M163.446154 248.123077h661.661538c22.843077 0 41.353846 18.510769 41.353846 41.353846V827.076923a165.415385 165.415385 0 0 1-165.415384 165.415385H287.507692a165.415385 165.415385 0 0 1-165.415384-165.415385V289.476923c0-22.843077 18.510769-41.353846 41.353846-41.353846z" fill="#BFCBD9" p-id="8167"></path><path d="M287.507692 413.538462m41.353846 0l0 0q41.353846 0 41.353847 41.353846l0 330.830769q0 41.353846-41.353847 41.353846l0 0q-41.353846 0-41.353846-41.353846l0-330.830769q0-41.353846 41.353846-41.353846Z" fill="#BFCBD9" p-id="8168"></path><path d="M452.923077 413.538462m41.353846 0l0 0q41.353846 0 41.353846 41.353846l0 330.830769q0 41.353846-41.353846 41.353846l0 0q-41.353846 0-41.353846-41.353846l0-330.830769q0-41.353846 41.353846-41.353846Z" fill="#BFCBD9" p-id="8169"></path><path d="M618.338462 413.538462m41.353846 0l0 0q41.353846 0 41.353846 41.353846l0 330.830769q0 41.353846-41.353846 41.353846l0 0q-41.353846 0-41.353846-41.353846l0-330.830769q0-41.353846 41.353846-41.353846Z" fill="#BFCBD9" p-id="8170"></path></svg>