<?xml version="1.0" standalone="no"?><!DOCTYPE svg PUBLIC "-//W3C//DTD SVG 1.1//EN" "http://www.w3.org/Graphics/SVG/1.1/DTD/svg11.dtd"><svg t="1609677871034" class="icon" viewBox="0 0 1024 1024" version="1.1" xmlns="http://www.w3.org/2000/svg" p-id="4137" xmlns:xlink="http://www.w3.org/1999/xlink" width="32" height="32"><defs><style type="text/css"></style></defs><path d="M511.997446 0C229.230444 0 0 229.232998 0 512.002554S229.230444 1024 511.997446 1024C794.769556 1024 1024 794.77211 1024 512.002554S794.769556 0 511.997446 0L511.997446 0zM506.454823 827.061307c-21.163092 11.824519-38.474055 17.738693-51.900968 17.738693-11.768339 0-21.091591-3.619751-27.97614-10.838823-6.885825-7.22418-10.326823-17.247122-10.326823-30.057337 0-41.05193 25.195252-141.398823 75.589586-301.030464 2.355711-7.557426 3.532928-14.292589 3.532928-20.200379 0-6.56407-3.026035-9.853127-9.072998-9.853127-6.724948 0-14.358983 2.634055-22.922534 7.881736-8.571212 5.257895-27.648 22.010893-57.200998 50.257716l-22.176878-16.752998c33.554514-36.127282 64.1762-61.837087 91.854843-77.107711 27.691411-15.270623 51.253626-22.909766 70.717287-22.909766 10.744339 0 18.964429 2.300808 24.66793 6.893486 5.698394 4.605446 8.558444 10.838823 8.558444 18.724389 0 9.528818-10.887342 49.930853-32.673516 121.206105-35.509307 116.598105-53.265875 186.897875-53.265875 210.869945 0 4.600339 1.169556 8.461406 3.52782 11.576818 2.34805 3.123072 4.864638 4.674394 7.55998 4.674394 10.749446 0 38.300409-20.357426 82.64395-61.091431l19.655182 18.721835C561.20818 788.133985 527.620469 815.236788 506.454823 827.061307L506.454823 827.061307zM624.629786 278.94807c-10.250214 11.011192-21.754254 16.501466-34.521057 16.501466-10.076569 0-18.477965-3.448658-25.197805-10.347252-6.71984-6.890933-10.076569-15.923072-10.076569-27.097696 0-14.776499 4.863362-27.342843 14.613067-37.691372 9.738214-10.342145 21.332908-15.513217 34.777696-15.513217 10.403431 0 18.974643 3.369496 25.694484 10.094444 6.71984 6.740269 10.076569 15.36 10.076569 25.866853C640 255.21604 634.877446 267.939431 624.629786 278.94807L624.629786 278.94807zM624.629786 278.94807" p-id="4138" fill="#BFCBD9"></path></svg>